<?xml version="1.0" encoding="utf-8"?>
<!-- Generator: Adobe Illustrator 27.1.0, SVG Export Plug-In . SVG Version: 6.00 Build 0)  -->
<svg version="1.1" id="Layer_1" xmlns="http://www.w3.org/2000/svg" xmlns:xlink="http://www.w3.org/1999/xlink" x="0px" y="0px"
	 viewBox="0 0 283.5 283.5" style="enable-background:new 0 0 283.5 283.5;" xml:space="preserve">
<path d="M187.1,239.6c-2.3,0-4.3-1.9-4.3-4.2v-0.2c0-2.3,1.9-4.3,4.3-4.3s4.3,1.9,4.3,4.3v0.1C191.4,237.6,189.5,239.6,187.1,239.6z
	 M211.9,206.2c-11.6,0-22.2,7-26.7,17.7c-0.9,2.1,0.1,4.6,2.2,5.5c1.1,0.4,2.2,0.4,3.2,0c1.1-0.4,1.9-1.3,2.3-2.3
	c3.2-7.6,10.6-12.5,18.9-12.5c11.3,0,20.5,9.2,20.5,20.5s-9.2,20.5-20.5,20.5c-7.9,0-15.1-4.6-18.5-11.6c-1-2.1-3.6-3-5.7-2
	c-2.1,1-3,3.6-2,5.7c2.3,4.8,6,8.9,10.5,11.9c4.6,3,10.1,4.6,15.6,4.6c16,0,29-13,29-29C240.8,219.2,227.8,206.2,211.9,206.2z
	 M245.3,162.9c2.3,3.5,2.8,8,1.2,11.9l-3.4,8.2c-0.8,1.9-2.2,3.3-4.1,4c-0.9,0.4-1.8,0.5-2.8,0.5s-2.1-0.2-3-0.6
	c-6.7-2.9-13.9-4.5-21.4-4.5c-7.4,0-14.7,1.5-21.4,4.5c-1.8,0.8-3.9,0.9-5.8,0.1c-1.9-0.7-3.3-2.2-4.1-4l-3.4-8.2
	c-1.6-3.9-1.2-8.4,1.2-11.9c2.3-3.5,6.3-5.6,10.5-5.6h45.8C239,157.3,242.9,159.4,245.3,162.9z M238.3,167.6
	c-0.8-1.2-2.1-1.9-3.5-1.9H189c-1.4,0-2.7,0.7-3.5,1.9c-0.8,1.2-0.9,2.6-0.4,3.9l2.9,7.2c7.5-3.2,15.6-4.8,23.8-4.8
	c8.2,0,16.3,1.6,23.8,4.8l2.9-7.2C239.1,170.2,239.1,168.8,238.3,167.6z M273.1,235.2c0,8.5-1.7,16.6-5,24.3
	c-3.2,7.4-7.9,14-13.7,19.8c-2.9,2.7-6.5,4.2-10.5,4.2h-64.1c-3.9,0-7.6-1.5-10.5-4.2c-5.9-5.6-10.5-12.2-13.7-19.8
	c-3.3-7.7-5-15.9-5-24.3c0-15.5,5.8-30.2,16.3-41.6c0.5-0.5,0.6-1.3,0.4-2.1l-7.2-19c-2.6-6.8-1.6-14.3,2.5-20.3
	c4.1-5.9,10.9-9.5,18.1-9.5h62.3c7.2,0,13.9,3.6,18.1,9.5c4.1,5.9,5,13.5,2.5,20.3l-7.2,19c-0.3,0.7-0.1,1.5,0.4,2.1
	C267.3,204.9,273.1,219.7,273.1,235.2z M264.5,235.2c0-13.3-5-26-14-35.8c-2.7-2.9-3.5-7.1-2.1-10.9l7.2-19
	c1.6-4.2,1.1-8.8-1.5-12.4c-2.6-3.7-6.6-5.8-11.1-5.8h-62.3c-4.5,0-8.5,2.1-11.1,5.8c-2.6,3.7-3.1,8.2-1.5,12.4l7.2,19
	c1.4,3.8,0.6,8-2.1,10.9c-9,9.8-14,22.5-14,35.8c0,14.5,5.7,27.9,16.1,37.9c1.3,1.2,2.9,1.9,4.6,1.9h64.1c1.7,0,3.3-0.6,4.6-1.9l0,0
	C258.8,263.1,264.5,249.6,264.5,235.2z"/>
<path d="M78.8,248.8c-34.9,0-63.3-28.4-63.3-63.3c0-35.4,29-91.7,63.3-91.7s63.3,56.3,63.3,91.7C142.1,220.4,113.7,248.8,78.8,248.8
	 M78.8,71.5L92,88.1c-4.3-1.5-8.7-2.3-13.2-2.3s-8.9,0.9-13.2,2.3L78.8,71.5z M109.6,98.3c-0.1-0.7-0.3-1.4-0.8-2l-26-32.8V4
	c0-2.2-1.8-4-4-4c-2.2,0-4,1.8-4,4v59.6l-26,32.8c-0.5,0.6-0.7,1.3-0.8,2c-24,19.7-40.6,58.8-40.6,87.2c0,39.3,32,71.3,71.3,71.3
	s71.3-32,71.3-71.3C150.2,157.2,133.6,118,109.6,98.3"/>
</svg>
