<?xml version="1.0" encoding="utf-8"?>
<!-- Generator: Adobe Illustrator 27.1.0, SVG Export Plug-In . SVG Version: 6.00 Build 0)  -->
<svg version="1.1" id="Layer_1" xmlns="http://www.w3.org/2000/svg" xmlns:xlink="http://www.w3.org/1999/xlink" x="0px" y="0px"
	 viewBox="0 0 283.5 283.5" style="enable-background:new 0 0 283.5 283.5;" xml:space="preserve">
<path d="M182.8,239.8h0.9c2.1,0,3.9-1.3,4.3-3.4c0.4-2.1-0.9-4.7-3.4-5.1c-33.4-6.4-31.7-30.4-31.7-31.7c0.4-2.1-1.3-4.3-3.9-4.7
	c-2.6-0.4-4.3,1.3-4.7,3.9C144.3,199.6,141.3,231.7,182.8,239.8 M134,227.8c6,11.1,18.4,25.3,43.7,26.6c15.8,2.1,41.1-1.7,63.8-14.1
	c3,3.4,7.3,5.6,12.4,5.6h12.8c9,0,16.7-7.3,16.7-16.7v-49.7c0-6.4-5.6-12-12-12h-21.8c-3.9,0-7.3,2.2-9.8,5.1
	c-15-11.1-60.8-42.8-85.2-20.6c-5.1,4.7-4.3,9.4-3.4,11.6c0.4,0.9,0.9,1.7,1.3,2.1c-4.3,0.9-9,2.6-13.3,6.4c-1.7,1.7-3.4,3.9-4.7,6
	 M245.4,179.5c0-1.7,1.7-3.4,3.4-3.4h21.8c1.7,0,3.4,1.7,3.4,3.4v48.8c0,4.3-3.4,8.1-8.1,8.1h-12.8c-4.3,0-8.1-3.4-8.1-8.1v-48.8
	H245.4z M144.3,178.6c6.4-6,15.8-4.7,16.3-4.7h1.7c6.9,3.4,15.8,5.6,22.3,6c2.1,0,4.3-1.7,4.3-4.3c0-2.6-1.7-4.3-4.3-4.3
	c-10.7-0.4-24-6.4-25.7-10.7c0-0.4-0.4-0.9,1.3-2.6c18.4-16.7,60.4,10.3,77.1,23.6v46.7c0,1.3,0,2.6,0.4,3.4
	C206.8,248.8,179.4,245,179,245h-0.4c-34.7-1.7-40.7-30.8-40.7-31.7C135.3,196.6,137.9,184.6,144.3,178.6"/>
<path d="M71.3,262.1C36.4,262.1,8,233.7,8,198.8c0-35.4,29-91.7,63.3-91.7s63.3,56.3,63.3,91.7C134.6,233.7,106.2,262.1,71.3,262.1
	 M71.3,84.8l13.2,16.7c-4.3-1.5-8.7-2.3-13.2-2.3c-4.5,0-8.9,0.9-13.2,2.3L71.3,84.8z M102.1,111.6c-0.1-0.7-0.3-1.4-0.8-2l-26-32.8
	V17.3c0-2.2-1.8-4-4-4c-2.2,0-4,1.8-4,4v59.6l-26,32.8c-0.5,0.6-0.7,1.3-0.8,2C16.6,131.4,0,170.5,0,198.8c0,39.3,32,71.3,71.3,71.3
	s71.3-32,71.3-71.3C142.7,170.5,126.1,131.4,102.1,111.6"/>
</svg>
