<?xml version="1.0" encoding="utf-8"?>
<!-- Generator: Adobe Illustrator 23.0.6, SVG Export Plug-In . SVG Version: 6.00 Build 0)  -->
<svg version="1.1" id="Layer_1" xmlns="http://www.w3.org/2000/svg" xmlns:xlink="http://www.w3.org/1999/xlink" x="0px" y="0px"
	 viewBox="0 0 100 100" style="enable-background:new 0 0 100 100;" xml:space="preserve">
<style type="text/css">
	.st0{fill:#B89F65;}
</style>
<path class="st0" d="M32.7,76.7h34.7V74H32.7V76.7z M32.7,68.7h34.7V66H32.7V68.7z M32.7,60.7h34.7V58H32.7V60.7z M32.7,52.7h34.7
	V50H32.7V52.7z M32.7,44.7h34.7V42H32.7V44.7z M50,20.7c0.7,0,1.3-0.6,1.3-1.3c0-0.7-0.6-1.3-1.3-1.3c-0.7,0-1.3,0.6-1.3,1.3
	C48.7,20.1,49.3,20.7,50,20.7 M67.3,26H70c1.5,0,2.7,1.2,2.7,2.7v56c0,1.5-1.2,2.7-2.7,2.7H30c-1.5,0-2.7-1.2-2.7-2.7v-56
	c0-1.5,1.2-2.7,2.7-2.7h2.7c0,2.9,2.4,5.3,5.3,5.3h24C64.9,31.3,67.3,29,67.3,26 M40.7,18H38c-2.9,0-5.3,2.4-5.3,5.3H30
	c-2.9,0-5.3,2.4-5.3,5.3v56c0,3,2.4,5.3,5.3,5.3h40c2.9,0,5.3-2.4,5.3-5.3v-56c0-3-2.4-5.3-5.3-5.3h-2.7c0-2.9-2.4-5.3-5.3-5.3h-2.7
	c0-4.4-3.6-8-8-8h-2.6C44.3,10,40.7,13.6,40.7,18 M43.3,20.7V18c0-2.9,2.4-5.3,5.3-5.3h2.6c3,0,5.3,2.4,5.3,5.3v2.7H62
	c1.5,0,2.7,1.2,2.7,2.7V26c0,1.5-1.2,2.7-2.7,2.7H38c-1.5,0-2.7-1.2-2.7-2.7v-2.7c0-1.5,1.2-2.7,2.7-2.7H43.3z"/>
</svg>
