<?xml version="1.0" encoding="utf-8"?>
<!-- Generator: Adobe Illustrator 23.0.6, SVG Export Plug-In . SVG Version: 6.00 Build 0)  -->
<svg version="1.1" id="Layer_1" xmlns="http://www.w3.org/2000/svg" xmlns:xlink="http://www.w3.org/1999/xlink" x="0px" y="0px"
	 viewBox="0 0 100 100" style="enable-background:new 0 0 100 100;" xml:space="preserve">
<style type="text/css">
	.st0{fill:#B89F65;}
</style>
<path class="st0" d="M54,88.3c-1.6,0-2.9-1.1-3.3-2.6L38.2,29.5l-7.5,29.3c-0.4,1.5-1.7,2.5-3.3,2.5H13.4c-1.9,0-3.4-1.5-3.4-3.4
	c0-1.9,1.5-3.4,3.4-3.4h11.5l10.3-40.4c0.4-1.5,1.7-2.6,3.3-2.5c1.6,0,2.9,1.1,3.2,2.6l12.1,54.4L60,37.8c0.3-1.4,1.4-2.5,2.9-2.7
	c1.4-0.2,2.8,0.6,3.4,1.9l7.4,15.4h12.9c1.9,0,3.4,1.5,3.4,3.4c0,1.9-1.5,3.4-3.4,3.4h-15c-1.3,0-2.5-0.7-3-1.9l-4-8.2l-7.3,36.7
	C57,87.2,55.6,88.3,54,88.3L54,88.3z"/>
</svg>
