<?xml version="1.0" encoding="utf-8"?>
<!-- Generator: Adobe Illustrator 24.1.0, SVG Export Plug-In . SVG Version: 6.00 Build 0)  -->
<svg version="1.1" id="Layer_1" xmlns="http://www.w3.org/2000/svg" xmlns:xlink="http://www.w3.org/1999/xlink" x="0px" y="0px"
	 viewBox="0 0 283.5 283.5" style="enable-background:new 0 0 283.5 283.5;" xml:space="preserve">
<path d="M155.8,277.6c-5.6,0-10.4-3.9-11.6-9.3L99.9,69L73.4,172.9c-1.3,5.3-6.1,9-11.5,9H11.9c-6.6,0-11.9-5.3-11.9-11.9
	c0-6.6,5.3-11.9,11.9-11.9h40.7L89.2,14.8c1.4-5.3,6.2-9.2,11.7-9c5.5,0.1,10.2,3.9,11.4,9.3L155.2,208l21.9-109.5
	c1-5,5.1-8.8,10.2-9.5c5.1-0.7,10,2,12.2,6.7l26.3,54.5h45.8c6.6,0,11.9,5.3,11.9,11.9c0,6.6-5.3,11.9-11.9,11.9h-53.3
	c-4.6,0-8.7-2.6-10.7-6.7L193.5,138l-26,130c-1.1,5.5-5.9,9.5-11.6,9.6H155.8z"/>
</svg>
