<?xml version="1.0" encoding="utf-8"?>
<!-- Generator: Adobe Illustrator 24.1.0, SVG Export Plug-In . SVG Version: 6.00 Build 0)  -->
<svg version="1.1" id="Layer_1" xmlns="http://www.w3.org/2000/svg" xmlns:xlink="http://www.w3.org/1999/xlink" x="0px" y="0px"
	 viewBox="0 0 283.5 283.5" style="enable-background:new 0 0 283.5 283.5;" xml:space="preserve">
<path d="M199.5,131.2C199.5,131.2,199.5,131.1,199.5,131.2C199.5,131.1,199.5,131.1,199.5,131.2 M199.5,131.1c0,0,0-0.1,0-0.2
	C199.5,131,199.5,131,199.5,131.1 M199.5,130.7c0-0.1,0-0.1,0-0.2C199.5,130.5,199.5,130.6,199.5,130.7 M199.5,130.5
	C199.5,130.5,199.5,130.4,199.5,130.5C199.5,130.4,199.5,130.5,199.5,130.5 M199.5,130.9L199.5,130.9L199.5,130.9z M199.5,130.9
	c0-0.1,0-0.2,0-0.2C199.5,130.7,199.5,130.8,199.5,130.9 M199.5,130.4C199.5,130.3,199.5,130.3,199.5,130.4 M141.5,144.9h-25.2
	l24.3-36.9v-1.6h-31.7v5.2h22.3l-24.3,37v1.5h34.6V144.9z M228.9,122.5c0-5.4-1.1-9.6-3.4-12.4c-2.2-2.7-5.5-4-10.3-4
	c-1.3,0-2.4,0.1-3.5,0.4c-1.1,0.3-2.2,0.7-3.2,1.2c-1,0.5-1.9,1-2.7,1.6c-0.8,0.6-1.6,1.3-2.2,2l-2.8,2.9l0-7h-6.6v43h6.3v-32.4
	l0.5-0.5c0.7-0.7,1.5-1.6,2.4-2.3c0.9-0.7,1.8-1.3,2.8-1.8c1-0.6,2.2-1,3.3-1.4c1.2-0.4,2.5-0.5,3.7-0.5c3,0,5.4,1.2,7,3.4
	c1.4,2.1,2.1,4.9,2.1,8.6v27h6.4V122.5z M266.3,125l-0.1-1.8c-0.2-3.8-1.3-6.8-3.3-8.9c-2-2.1-4.8-3.2-8.3-3.2c-3.6,0-6.7,1-9,3.1
	c-2.3,2-3.9,5-4.6,8.8l-0.4,2.1H266.3z M272.3,129.3h-31.7l0.2,1.9c0.2,2.1,0.7,4,1.5,5.8c0.8,1.8,1.9,3.4,3.3,4.7
	c1.4,1.3,3,2.3,4.9,3c2.9,1.1,6.3,1.4,10.2,0.7c1.4-0.3,2.9-0.6,4.3-1.1c1.4-0.5,2.9-1.1,4.4-1.8c0.5-0.2,1-0.5,1.5-0.8v4.3
	c-2.2,1.3-4.5,2.3-6.8,3c-2.7,0.8-5.7,1.2-9.2,1.2c-3.1,0-5.9-0.5-8.4-1.5c-2.4-1-4.5-2.4-6.2-4.3c-1.7-1.9-3-4.2-4-6.9
	c-0.9-2.8-1.4-6-1.4-9.5c0-3.3,0.5-6.3,1.5-9c1-2.7,2.3-5,4-6.8c1.7-1.9,3.8-3.3,6.2-4.3c2.4-1,5.2-1.6,8.2-1.6
	c2.9,0,5.5,0.5,7.7,1.4c2.1,0.9,4,2.2,5.4,3.9c1.5,1.7,2.6,3.8,3.3,6.3c0.8,2.6,1.2,5.5,1.2,8.7V129.3z M90.3,158.5l-4.7,19h32
	l4.7-19H90.3z M127.3,158.5l-4.7,19h32l4.7-19H127.3z M164.2,158.5l-4.7,19h32l4.7-19H164.2z M201,158.5l-4.7,19h32l4.7-19H201z
	 M238,158.5l-4.7,19h32l4.7-19H238z M57.6,110.3c-2.1-2.8-5.3-4.1-9.8-4.1c-1.2,0-2.4,0.2-3.6,0.6c-1.2,0.4-2.4,1-3.6,1.6
	c-1.1,0.7-2.2,1.4-3.2,2.3c-1,0.9-2,1.8-2.8,2.6l-1.8,1.9l-1.1-2.4c-1-2.1-2.3-3.7-4.2-4.9c-1.8-1.2-4.2-1.8-7.1-1.8
	c-1.1,0-2.2,0.2-3.2,0.4c-1.1,0.3-2.1,0.7-3.1,1.2c-1,0.5-1.8,1-2.6,1.6c-0.8,0.7-1.6,1.3-2.3,2L6.4,114l0-6.8H0v43h6.3v-32.6
	l0.5-0.5c0.6-0.6,1.3-1.2,2-1.9c0.8-0.7,1.7-1.3,2.7-1.9c1-0.6,2.1-1.1,3.2-1.5c1.2-0.4,2.5-0.6,3.7-0.6c2.9,0,5.2,1.2,6.7,3.4
	c1.4,2.1,2,4.9,2,8.5v27h3.9h2.5v-27.3v-4.7l0.1-0.1c0.5-0.7,1.2-1.4,2-2.2c0.8-0.8,1.7-1.5,2.8-2.2c1-0.7,2.2-1.2,3.3-1.7
	c1.3-0.5,2.6-0.7,4-0.7c2.8,0,5.1,1.2,6.6,3.4c1.4,2.1,2,4.9,2,8.5v27h6.4v-27.3C60.9,117.4,59.8,113.2,57.6,110.3 M96.8,106.5
	l-12.6,36.2l-3.3-9.3l-9.4-26.9h-7.1c2.6,6.7,5.4,13.6,8.1,20.4c3.1,7.8,6.1,15.4,9.1,22.9l0.2,0.6l-0.2,0.6
	c-0.9,2.8-1.7,5.3-2.4,7.5c-0.7,2.2-1.4,4.5-2.1,6.7c-0.7,2.2-1.3,4.5-1.9,6.8c-0.4,1.7-0.9,3.5-1.3,5.5h6.6
	c0.5-2.4,1.1-4.9,1.7-7.4c0.7-3,1.5-5.9,2.2-8.9c0.8-3,1.5-5.8,2.2-8.3c0.7-2.6,1.4-4.7,2-6.4l14.8-40H96.8z M168.8,133.8l-2.7-12.1
	l-4.5,11.9c-1.8,3.6-4.1,0.3-4.1,0.3l-2.2-3.5l-5.5,12.3c4,4.8,9.9,7.9,16.4,7.9c9.5,0,17.6-6.4,20.5-15.2l-15.9,0
	C169.2,135.4,168.8,133.8,168.8,133.8 M155.4,125.1c1.1,0,1.9,1.4,1.9,1.4l1.8,3.7l5.1-13.1c0,0,0.3-1.6,2.1-1.6
	c1.8,0,2.1,1.8,2.1,1.8l3.8,14.9h15.3c0.2-1.2,0.3-2.5,0.3-3.8c0-12.3-9.7-22.3-21.6-22.3c-11.9,0-21.6,10-21.6,22.3
	c0,4.1,1.1,8,3,11.3l6.2-13.6C153.8,126.1,154.3,125.1,155.4,125.1 M276.6,106.5c0-0.1,0-0.2,0-0.2c0-0.1,0-0.1,0-0.1
	c0,0,0-0.1,0-0.1c0,0,0,0-0.1,0h-3.7c0,0-0.1,0-0.1,0c0,0,0,0,0,0.1c0,0,0,0.1,0,0.1c0,0.1,0,0.1,0,0.2c0,0.1,0,0.1,0,0.2
	c0,0.1,0,0.1,0,0.1c0,0,0,0.1,0,0.1c0,0,0,0,0.1,0h1.3v4.3c0,0,0,0.1,0,0.1c0,0,0,0,0.1,0.1c0,0,0.1,0,0.2,0c0.1,0,0.2,0,0.3,0
	c0.1,0,0.2,0,0.3,0c0.1,0,0.1,0,0.2,0c0,0,0.1,0,0.1-0.1c0,0,0,0,0-0.1v-4.3h1.3c0,0,0,0,0.1,0c0,0,0,0,0-0.1c0,0,0-0.1,0-0.1
	C276.6,106.6,276.6,106.5,276.6,106.5 M283.5,106.4c0-0.1,0-0.1,0-0.2c0-0.1,0-0.1-0.1-0.1c0,0-0.1-0.1-0.1-0.1c-0.1,0-0.1,0-0.2,0
	h-0.7c-0.1,0-0.2,0-0.3,0c-0.1,0-0.1,0.1-0.2,0.1c-0.1,0-0.1,0.1-0.1,0.2c0,0.1-0.1,0.2-0.1,0.3l-1.2,3.2h0l-1.1-3.2
	c0-0.1-0.1-0.2-0.1-0.3c0-0.1-0.1-0.1-0.2-0.2c-0.1,0-0.1-0.1-0.2-0.1c-0.1,0-0.2,0-0.3,0h-0.7c-0.1,0-0.2,0-0.3,0.1
	c-0.1,0.1-0.1,0.2-0.1,0.3v4.7c0,0,0,0.1,0,0.1c0,0,0,0,0.1,0.1c0,0,0.1,0,0.2,0c0.1,0,0.1,0,0.2,0c0.1,0,0.2,0,0.2,0
	c0.1,0,0.1,0,0.2,0c0,0,0.1,0,0.1-0.1c0,0,0,0,0-0.1v-4.3h0l1.5,4.3c0,0,0,0.1,0,0.1c0,0,0.1,0,0.1,0.1c0,0,0.1,0,0.2,0
	c0.1,0,0.1,0,0.2,0c0.1,0,0.2,0,0.2,0c0.1,0,0.1,0,0.2,0c0,0,0.1,0,0.1-0.1c0,0,0-0.1,0.1-0.1l1.5-4.3h0v4.3c0,0,0,0.1,0,0.1
	c0,0,0,0,0.1,0.1c0,0,0.1,0,0.2,0c0.1,0,0.1,0,0.2,0c0.1,0,0.2,0,0.3,0c0.1,0,0.1,0,0.2,0c0,0,0.1,0,0.1-0.1c0,0,0,0,0-0.1V106.4z"
	/>
</svg>
