<?xml version="1.0" encoding="utf-8"?>
<!-- Generator: Adobe Illustrator 23.0.6, SVG Export Plug-In . SVG Version: 6.00 Build 0)  -->
<svg version="1.1" id="Layer_1" xmlns="http://www.w3.org/2000/svg" xmlns:xlink="http://www.w3.org/1999/xlink" x="0px" y="0px"
	 viewBox="0 0 100 100" style="enable-background:new 0 0 100 100;" xml:space="preserve">
<style type="text/css">
	.st0{fill:#B89F65;}
</style>
<path class="st0" d="M76.1,40.4C84,41.7,90,49,90,57.9c0,8.6-5.6,15.8-13.2,17.3v7c0,1.1-0.7,2.1-1.7,2.5c-0.3,0.1-0.7,0.2-1,0.2
	c-0.7,0-1.4-0.3-2-0.8l-8.2-8.5h-4.1c-6,0-11.3-3.5-14.2-8.8l0.8-0.8h4.2c12.7,0,23.4-9.8,25.3-23.2C76,41.9,76.1,41.2,76.1,40.4
	 M72.3,38.6c0,1.1-0.1,2.3-0.3,3.6C70.3,53.7,61.3,62,50.5,62h-5.8L33.4,73.8c-0.6,0.6-1.4,1-2.3,1c-0.4,0-0.8-0.1-1.2-0.2
	c-1.2-0.5-2-1.7-2-3v-9.9c-10.3-1.9-18-11.5-18-23.1c0-12.9,9.8-23.5,21.7-23.5h18.8C62.5,15.1,72.3,25.6,72.3,38.6z M45.6,44.9
	c0-0.9-0.7-1.6-1.6-1.6H25.7c-0.9,0-1.6,0.7-1.6,1.6c0,0.9,0.7,1.6,1.6,1.6H44C44.9,46.5,45.6,45.8,45.6,44.9z M57.8,32.9
	c0-0.9-0.7-1.6-1.5-1.6H25.7c-0.9,0-1.6,0.7-1.6,1.6c0,0.9,0.7,1.6,1.6,1.6h30.6C57.1,34.6,57.8,33.8,57.8,32.9z"/>
</svg>
