<?xml version="1.0" encoding="utf-8"?>
<!-- Generator: Adobe Illustrator 23.0.6, SVG Export Plug-In . SVG Version: 6.00 Build 0)  -->
<svg version="1.1" id="Layer_1" xmlns="http://www.w3.org/2000/svg" xmlns:xlink="http://www.w3.org/1999/xlink" x="0px" y="0px"
	 viewBox="0 0 100 100" style="enable-background:new 0 0 100 100;" xml:space="preserve">
<style type="text/css">
	.st0{fill:#B89F65;}
</style>
<path class="st0" d="M50,83.5c-14.4,0-26.1-11.7-26.1-26.1C23.9,43,35.6,31.3,50,31.3S76.1,43,76.1,57.4
	C76.1,71.8,64.4,83.5,50,83.5 M72.7,34.1c2,0,2.1,0,2.2,0c0.3-0.1,0.7-0.2,0.9-0.5l4.4-4.4c0.3-0.3,0.4-0.6,0.5-0.9
	c0.1-0.4,0-0.8-0.3-1.1l-5.2-5.2c-0.2-0.2-0.5-0.4-0.9-0.4c0,0-0.2,0-0.2,0c-0.3,0.1-0.7,0.2-0.9,0.5l-4.4,4.4
	c-0.3,0.3-0.4,0.6-0.5,0.9c0,0.1,0,0.2,0,3c-3.9-2.6-8.2-4.4-12.8-5.1V20h1.9c0.4,0,0.7-0.1,1-0.3c0.4-0.3,0.6-0.6,0.6-1v-7.3
	c0-0.4-0.2-0.8-0.6-1c-0.3-0.2-0.6-0.3-1-0.3H42.7c-0.4,0-0.7,0.1-1,0.3c-0.4,0.3-0.6,0.6-0.6,1v7.3c0,0.4,0.2,0.8,0.6,1
	c0.3,0.2,0.6,0.3,1,0.3h1.9v5.3C29,27.9,17.4,41.6,17.4,57.4C17.4,75.4,32,90,50,90c18,0,32.6-14.6,32.6-32.6
	C82.6,48.6,79,40.2,72.7,34.1 M42.7,75.2l9.3-15.5c0.8-1.3,0.4-3-0.9-3.8c-0.6-0.4-1.4-0.5-2.1-0.3c-0.7,0.2-1.3,0.6-1.7,1.2
	l-9.3,15.5c-0.8,1.3-0.4,3,0.9,3.7C40.3,76.8,42,76.4,42.7,75.2"/>
</svg>
