<?xml version="1.0" encoding="utf-8"?>
<!-- Generator: Adobe Illustrator 24.1.0, SVG Export Plug-In . SVG Version: 6.00 Build 0)  -->
<svg version="1.1" id="Layer_1" xmlns="http://www.w3.org/2000/svg" xmlns:xlink="http://www.w3.org/1999/xlink" x="0px" y="0px"
	 viewBox="0 0 283.5 283.5" style="enable-background:new 0 0 283.5 283.5;" xml:space="preserve">
<path d="M141.7,260.5c-51.1,0-92.6-41.5-92.6-92.6c0-51.1,41.5-92.6,92.6-92.6c51,0,92.6,41.5,92.6,92.6
	C234.3,219,192.8,260.5,141.7,260.5 M222.3,85.3c7.2-0.1,7.5-0.1,7.8-0.2c1.2-0.2,2.4-0.8,3.3-1.7L249,67.7c0.9-0.9,1.6-2.1,1.8-3.3
	c0.3-1.5-0.2-3-1.2-4l-18.3-18.3c-0.8-0.8-1.9-1.3-3.2-1.3c-0.2,0-0.7,0.1-0.8,0.1c-1.2,0.2-2.4,0.8-3.3,1.8l-15.7,15.7
	c-0.9,0.9-1.6,2.1-1.8,3.4c0,0.3-0.1,0.6-0.1,10.7c-13.7-9.2-29.2-15.5-45.5-18.2V35.4h6.6c1.3,0,2.6-0.4,3.5-1.1
	c1.3-0.9,2-2.2,2-3.7V4.7c0-1.4-0.7-2.8-2-3.6c-1-0.7-2.3-1.1-3.6-1.1h-51.6c-1.3,0-2.6,0.4-3.6,1.1c-1.2,0.9-2,2.2-2,3.6v25.9
	c0,1.4,0.7,2.8,2,3.7c1,0.7,2.3,1.1,3.6,1.1h6.6v18.7c-55.1,9.3-96.3,57.8-96.3,113.8c0,63.7,51.8,115.5,115.5,115.5
	c63.7,0,115.5-51.8,115.5-115.5C257.3,136.8,244.6,107,222.3,85.3 M116,230.9l33-55c2.7-4.6,1.3-10.5-3.3-13.3
	c-2.2-1.3-4.8-1.7-7.3-1.1c-2.5,0.6-4.6,2.2-6,4.4l-33,55c-2.7,4.6-1.3,10.5,3.3,13.3C107.2,236.8,113.4,235.3,116,230.9"/>
</svg>
