<?xml version="1.0" encoding="utf-8"?>
<!-- Generator: Adobe Illustrator 23.0.6, SVG Export Plug-In . SVG Version: 6.00 Build 0)  -->
<svg version="1.1" id="Layer_1" xmlns="http://www.w3.org/2000/svg" xmlns:xlink="http://www.w3.org/1999/xlink" x="0px" y="0px"
	 viewBox="0 0 100 100" style="enable-background:new 0 0 100 100;" xml:space="preserve">
<style type="text/css">
	.st0{fill:#B89F65;}
</style>
<path class="st0" d="M45.4,40.3c-4.1,8.1-11.2,10.7-14.6,11.5l0.2,29l5.3,3.4l39.9,1.4c0.7-0.4,2.1-1.5,1.8-3.1
	c-0.4-2.4-1.4-3.3-1.7-3.4c-0.4-0.2-0.7-0.6-0.9-1c-0.4-1.1,0.1-2.3,1.1-2.7c0,0,4.8-2,4.5-3.2c-0.4-2.1-2.2-3.4-2.2-3.4
	c0,0-0.7-1-0.7-1.1c-0.3-1.1,0.3-2.3,1.4-2.6c0,0,5.4-1.6,4.8-4c-0.9-3-2.6-3.3-2.6-3.3s-1.5-0.9-1.6-1.2c-0.5-1-0.1-2.3,1-2.8
	c0,0,4.7-2.3,4.8-5c0.1-2-1.6-3.1-2.2-3.5L57,44c0,0-2.9-0.8-1.7-3.1c0,0,0.8-1.3,1.8-3.2c1.7-3.2,3.1-23.2-3.5-23.4
	C51.8,14.3,47.2,36.6,45.4,40.3 M28.5,48.1c0.7-0.1,8.9-1.1,13.1-9.6c3.4-6.8,4.9-28,11.5-28.3C64.4,9.6,64.3,33.3,60.6,40
	c3.1,0.2,23.1,0.9,24.3,1.4c0.2-0.4,5.2,3.1,5.1,7.6c-0.1,2.8-2.2,5.1-4.1,6.6c1,0.9,1.9,2.3,2.4,4.3c1.1,4-2.1,6.5-4.7,7.9
	c0.6,0.9,1.2,2.1,1.5,3.4c0.6,2.8-2.3,5.2-4.5,6.5c0.6,1,1.2,2.3,1.5,4c0.9,5.3-4.5,7.8-4.5,7.8c-0.4,0.2-0.7,0.2-1.1,0.2l-41-1.5
	c-0.4,0-0.7-0.1-1-0.3l-6.7-4.3c-0.7-0.4-1-1.1-1-1.9l-0.2-31.8C26.6,49,27.4,48.1,28.5,48.1 M20.1,52.7h-5.9v26.2h5.9V52.7z
	 M12.1,48.5h10.1c1.2,0,2.1,0.9,2.1,2.1V81c0,1.2-0.9,2.1-2.1,2.1H12.1c-1.2,0-2.1-0.9-2.1-2.1V50.6C10,49.5,10.9,48.5,12.1,48.5"/>
</svg>
