<?xml version="1.0" encoding="utf-8"?>
<!-- Generator: Adobe Illustrator 23.0.6, SVG Export Plug-In . SVG Version: 6.00 Build 0)  -->
<svg version="1.1" id="Layer_1" xmlns="http://www.w3.org/2000/svg" xmlns:xlink="http://www.w3.org/1999/xlink" x="0px" y="0px"
	 viewBox="0 0 100 100" style="enable-background:new 0 0 100 100;" xml:space="preserve">
<style type="text/css">
	.st0{fill:#B89F65;}
</style>
<path class="st0" d="M89.3,60.6L78.1,45.1c-0.5-0.6-1.2-1-2-1c-0.8,0-1.5,0.4-1.9,1L62.7,60.9c-0.5,0.7-0.6,1.7-0.2,2.5
	c0.4,0.8,1.2,1.3,2.1,1.3h4.9c-4.7,7-12.9,11.2-21.6,10.4c-5.5-0.5-10.6-2.8-14.5-6.7c-1.9-1.9-5-1.8-6.8,0.1
	c-1.9,1.9-1.8,5,0.1,6.8c5.5,5.4,12.8,8.7,20.5,9.4c0.9,0.1,1.9,0.1,2.8,0.1c13.3,0,25.3-8,30.5-20.2h7.1h0c1.3,0,2.4-1.1,2.4-2.4
	C90,61.6,89.7,61,89.3,60.6"/>
<path class="st0" d="M25.8,54.9l11.5-15.8c0.5-0.7,0.6-1.7,0.2-2.5c-0.4-0.8-1.2-1.3-2.1-1.3h-5c4.6-7,12.8-11.2,21.6-10.4
	c5.5,0.5,10.7,2.9,14.6,6.7c1.9,1.9,4.9,1.9,6.8,0c1.9-1.9,1.9-4.9,0-6.8c-5.5-5.5-12.8-8.8-20.6-9.5c-14.5-1.2-27.8,7-33.4,20h-7
	c-0.9,0-1.7,0.5-2.1,1.3c-0.4,0.8-0.3,1.8,0.2,2.5l11.5,15.8c0.5,0.6,1.2,1,2,1C24.6,55.9,25.4,55.5,25.8,54.9"/>
</svg>
